# xmcd
#
# Track frame offsets: 
#        182
#        18135
#        35070
#        50567
#        71775
#        92437
#        107925
#        126195
#        147265
#        162512
#
# Disc length: 2429 seconds
#
# Revision: 3
# Processed by: cddbd v1.5PL3 Copyright (c) Steve Scherf et al.
# Submitted via: ExactAudioCopy v0.90b4
#
DISCID=8c097b0a
DTITLE=The Forester Sisters - More Than I Am
DYEAR=1900
DGENRE=Country
TTITLE0=More Than I Am
TTITLE1=Another Shoulder At The Wheel
TTITLE2=Have You Seen Me
TTITLE3=Let's Get Together
TTITLE4=We Will Not Pass This Way Again
TTITLE5=Hammer and Nails
TTITLE6=Love and Time
TTITLE7=Come As You Are
TTITLE8=When I See Love
TTITLE9=I Will Forever Praise Your Name
EXTD=
EXTT0=
EXTT1=
EXTT2=
EXTT3=
EXTT4=
EXTT5=
EXTT6=
EXTT7=
EXTT8=
EXTT9=
PLAYORDER=
